<?xml version="1.0" encoding="utf-8"?>
<svg width="176.87911797698416" height="169" version="1.1" preserveAspectRatio="xMidYMid" style="" viewBox="-17.893 -6.434 174.357 160.771" xmlns="http://www.w3.org/2000/svg">
  <rect id="backgroundrect" width="100%" height="100%" x="0" y="0" fill="none" stroke="none" class="" style=""/>
  <defs>
    <radialGradient cx="50%" cy="54.6521962%" r="66.2633343%" id="radialGradient-1">
      <stop stop-color="#FFB900" offset="0"/>
      <stop stop-color="#F95D8F" offset="0.6"/>
      <stop stop-color="#F95353" offset="0.9991"/>
    </radialGradient>
  </defs>
  <g class="currentLayer" style="">
    <title>Layer 1</title>
    <path d="M 116.261 78.582 C 95.826 78.582 79.262 95.146 79.262 115.58 C 79.262 136.015 95.826 152.581 116.261 152.581 C 136.695 152.581 153.259 136.015 153.259 115.58 C 153.259 95.146 136.695 78.582 116.261 78.582 L 116.261 78.582 Z M 20.135 78.585 C -0.297 78.585 -16.862 95.146 -16.862 115.582 C -16.862 136.015 -0.297 152.581 20.135 152.581 C 40.57 152.581 57.135 136.015 57.135 115.582 C 57.135 95.146 40.57 78.585 20.135 78.585 L 20.135 78.585 Z M 105.195 32.334 C 105.195 52.767 88.632 69.334 68.199 69.334 C 47.764 69.334 31.2 52.767 31.2 32.334 C 31.2 11.902 47.764 -4.664 68.199 -4.664 C 88.632 -4.664 105.195 11.902 105.195 32.334 L 105.195 32.334 Z" fill="url(#radialGradient-1)" class="" id="svg_6" style=""/>
  </g>
</svg>