<svg xmlns="http://www.w3.org/2000/svg" xmlns:xlink="http://www.w3.org/1999/xlink" width="176.87911797698416" height="169" version="1.1" preserveAspectRatio="xMidYMid" style=""><rect id="backgroundrect" width="100%" height="100%" x="0" y="0" fill="none" stroke="none" class="" style=""/>
    <defs>
        <radialGradient cx="50%" cy="54.6521962%" fx="50%" fy="54.6521962%" r="66.2633343%" id="radialGradient-1">
            <stop stop-color="#FFB900" offset="0%"/>
            <stop stop-color="#F95D8F" offset="60%"/>
            <stop stop-color="#F95353" offset="99.91%"/>
        </radialGradient>
    </defs>
	
<g class="currentLayer" style=""><title>Layer 1</title>
		<path d="M16.4556607120579,162.28388107116797 C10.681160571411317,162.28388107116797 6.00003326378711,157.49987464202349 6.00003326378711,151.597213530918 C6.00003326378711,145.69555383621844 10.681160571411317,140.91079651589325 16.4556607120579,140.91079651589325 C22.230411104131704,140.91079651589325 26.91053718016363,145.69555383621844 26.91053718016363,151.597213530918 C26.91053718016363,157.49987464202349 22.230411104131704,162.28388107116797 16.4556607120579,162.28388107116797 L16.4556607120579,162.28388107116797 zM26.944079290701637,163.63958326888667 C26.944079290701637,164.61781103263058 28.620684314747784,167.36701325030853 30.67551425325228,167.36701325030853 L32.006435262320664,167.36701325030853 C32.522332960306336,167.36701325030853 32.94461314632756,166.94423208228628 32.94461314632756,166.42858477262686 L32.94461314632756,137.1843672663822 L32.93910624593839,137.1843672663822 C32.91232263517323,136.69199963680973 32.50456065975514,136.2972540211839 32.006435262320664,136.2972540211839 L27.882757814462014,136.2972540211839 C27.38413177727406,136.2972540211839 26.976870441609442,136.69199963680973 26.948835231460603,137.1843672663822 L26.944079290701637,137.1843672663822 L26.944079290701637,139.56085160689 C24.417406925774355,136.44869378188608 20.434155848536648,135.15757301717315 16.43939026231761,135.15757301717315 C7.35974039471988,135.15757301717315 0,142.51731348034252 0,151.597213530918 C0,160.67711358149342 7.35974039471988,168.0381053017989 16.43939026231761,168.0381053017989 C20.434155848536648,168.0381053017989 24.787371489648944,166.488409648828 26.943578650948165,163.63532776253263 L26.944079290701637,163.63958326888667 zM42.796482584379284,159.45132445647178 C45.54918866428591,161.35771806209783 48.55396131565537,162.28388107116797 51.44108615759078,162.28388107116797 C54.192290386686494,162.28388107116797 57.0358605968125,160.85759031099798 57.0358605968125,158.3759743602415 C57.0358605968125,155.06206364295315 50.83908033859421,154.54616580806842 46.94594236349615,153.22325503505562 C43.05180310889115,151.9000937368175 39.697591781291905,149.16415840415706 39.697591781291905,144.73434672890033 C39.697591781291905,137.95633679075752 45.73742503617127,135.15657160076717 51.37425225639149,135.15657160076717 C54.94623701683583,135.15657160076717 58.631363828932955,136.33455079297391 61.02061359331062,138.0219189556741 C61.8438973234266,138.64495123361942 61.342267447717816,139.36110086292234 61.342267447717816,139.36110086292234 L59.061654114110716,142.61844010946248 C58.805332241642404,142.98515085718708 58.273915053546645,143.27826879324243 57.713962015548574,142.90480002489159 C56.17753297379712,141.88927480486248 54.46613423982927,140.91054599066797 51.37425225639149,140.91054599066797 C47.54694697143529,140.91054599066797 45.86333312773956,142.49929072301558 45.86333312773956,144.46751203765473 C45.86333312773956,146.82872666033307 48.55596380621975,147.57115884995056 51.70992368164835,148.37616895526673 C57.20657498802339,149.85702835337304 63.20185226313688,151.63826475861146 63.20185226313688,158.3759743602415 C63.20185226313688,164.3479727766622 57.61533817449891,168.0391067182049 51.44108615759078,168.0391067182049 C46.76271232069601,168.0391067182049 42.778960535255315,166.7049318929865 39.438015887325044,164.25335364294324 C38.74239248791451,163.55697907855395 39.228252485186964,162.91016743906135 39.228252485186964,162.91016743906135 L41.49785208646524,159.66984884894708 C41.95943160329038,159.06333754596733 42.541662631171384,159.2751032333212 42.796482584379284,159.45132445647178 zM94.12667984300596,163.63958326888667 C94.12667984300596,164.61781103263058 95.80328431945598,167.36701325030853 97.85811480555661,167.36701325030853 L99.1885351748715,167.36701325030853 C99.70493337571162,167.36701325030853 100.12746401850862,166.94423208228628 100.12746401850862,166.42858477262686 L100.12746401850862,137.1843672663822 L100.12195657052332,137.1843672663822 C100.09442206857747,136.69199963680973 99.68716114360993,136.2972540211839 99.1885351748715,136.2972540211839 L95.0651076361925,136.2972540211839 C94.56623114222877,136.2972540211839 94.15897021726126,136.69199963680973 94.13168555604553,137.1843672663822 L94.12667984300596,137.1843672663822 L94.12667984300596,139.56085160689 C91.60025752415734,136.44869378188608 87.6165060125147,135.15757301717315 83.62274170580262,135.15757301717315 C74.54284097073203,135.15757301717315 67.18209957030327,142.51731348034252 67.18209957030327,151.597213530918 C67.18209957030327,160.67711358149342 74.54284097073203,168.0381053017989 83.62274170580262,168.0381053017989 C87.6165060125147,168.0381053017989 91.96997183660471,166.488409648828 94.1261787925554,163.63532776253263 L94.12667984300596,163.63958326888667 zM83.63826057986707,162.28388107116797 C77.86351039314181,162.28388107116797 73.1826334259292,157.49987464202349 73.1826334259292,151.597213530918 C73.1826334259292,145.69555383621844 77.86351039314181,140.91079651589325 83.63826057986707,140.91079651589325 C89.41251040063692,140.91079651589325 94.09338805234468,145.69555383621844 94.09338805234468,151.597213530918 C94.09338805234468,157.49987464202349 89.41251040063692,162.28388107116797 83.63826057986707,162.28388107116797 zM137.07234917229778,164.64459464339575 L137.0705968647111,149.5125958693294 L137.07109791516166,149.5125958693294 C137.07109791516166,140.98213596952525 131.6893410364756,135.22766052917387 123.1073160634579,135.22766052917387 C119.01117318599462,135.22766052917387 115.65946464646565,137.59638474815432 114.47347549200141,139.63093911889075 L114.47347549200141,139.60265372576418 L114.46646694614988,139.625932721356 C114.46396374738251,137.56659757266638 112.79386676633347,136.3675920584099 110.73503198359924,136.3675920584099 L109.41111979418044,136.3675920584099 C108.89447106811505,136.3675920584099 108.47244147576862,136.79037322643217 108.47244147576862,137.306520902047 L108.47244147576862,163.71267503010534 L108.47244147576862,163.7171803771895 L108.47244147576862,166.5524900313832 L108.47794823925877,166.5524900313832 C108.50448132479863,167.0448583454508 108.91274366617216,167.4401050115272 109.41111979418044,167.4401050115272 L113.5345466483643,167.4401050115272 C113.59762629900865,167.4401050115272 113.6597038487519,167.4325954152251 113.71977925017833,167.42133136301956 C113.74731375212419,167.41557407430412 113.77209521457256,167.404810388054 113.79862830011243,167.39705095102175 C113.8299179424569,167.38803957235828 113.86170726626163,167.38052997605618 113.89049370983875,167.36826450744465 C113.92779048162878,167.35324599933563 113.96083174706476,167.332469518016 113.99512495413202,167.31344602877823 C114.0116459290976,167.30343323370877 114.02941816119926,167.29617416263196 114.04568861093956,167.2861613675625 C114.08598894745236,167.25937775679733 114.12428713564837,167.22733790776732 114.16083301625771,167.19454648306146 C114.16684083019841,167.18828882839063 114.17409990127523,167.18428384726187 114.17985718999064,167.17852655854645 C114.22115894290943,167.13922695394447 114.25820518947417,167.09617289343902 114.29149698013543,167.0501152682108 L114.291998030586,167.04961421776022 C114.39512749251789,166.90768620167694 114.45770609271167,166.7372222672418 114.46796872851127,166.5524900313832 L114.47347549200141,166.5524900313832 L114.47347549200141,149.2778010271138 C114.47347549200141,144.69629906592962 118.18763858840579,140.98213596952525 122.76939175931042,140.98213596952525 C127.35114424571991,140.98213596952525 131.06555786734955,144.69629906592962 131.06555786734955,149.2778010271138 L131.0688119572976,163.71768142764006 L131.07006321443373,163.71267503010534 C131.07006321443373,163.725190339447 131.0723158879758,163.73870774968978 131.0723158879758,163.75197395021215 L131.0723158879758,166.5524900313832 L131.0778233359611,166.5524900313832 C131.10510731268167,167.0448583454508 131.51236892214436,167.4401050115272 132.01124473161292,167.4401050115272 L136.13467227029193,167.4401050115272 C136.19825160239654,167.4401050115272 136.25932842022897,167.4325954152251 136.3194038216554,167.42133136301956 C136.34393475887848,167.4158245995294 136.3664628632896,167.40606232968526 136.38974254337657,167.40030504096984 C136.42428559117394,167.39029224590035 136.4588293234665,167.38153139246214 136.49111969772176,167.36826450744465 C136.52441148838307,167.35399689051633 136.55545060550224,167.33497271678337 136.58699008857684,167.3172004846817 C136.6065146282652,167.30643679843155 136.62704058435952,167.29817631094875 136.6455637076419,167.2861613675625 C136.68436226179332,167.26037917320332 136.7189053095907,167.2303414724901 136.75319851665793,167.2008041377323 C136.76195937009615,167.19304470070006 136.77172163994032,167.18628599557866 136.7799821274231,167.17827603332117 C136.81928173202508,167.14072873630587 136.85332441386706,167.09992734934252 136.88561478812235,167.0573743392876 C136.88761762093432,167.053619198889 136.89037066043178,167.05111668461677 136.89312438442445,167.04811243539885 C136.99475206399495,166.90768620167694 137.05657977300805,166.73847352437792 137.06759329998835,166.55499323015056 C137.06759329998835,166.55399249823972 137.0680943504389,166.5524900313832 137.0680943504389,166.5524900313832 L137.07285022274834,166.5524900313832 L137.07285022274834,164.64534553457645 L137.07234917229778,164.64459464339575 zM169.23072538267022,163.63958326888667 C169.23072538267022,164.61781103263058 170.90532771080345,167.36701325030853 172.9604080376342,167.36701325030853 L174.29208034858036,167.36701325030853 C174.80772765823977,167.36701325030853 175.2307586669922,166.94423208228628 175.2307586669922,166.42858477262686 L175.2307586669922,137.1843672663822 L175.22575226945744,137.1843672663822 C175.1982177675116,136.69199963680973 174.79020526686824,136.2972540211839 174.29208034858036,136.2972540211839 L170.16940370108205,136.2972540211839 C169.6687755840268,136.2972540211839 169.2632662821508,136.69199963680973 169.23573178020496,137.1843672663822 L169.23072538267022,137.1843672663822 L169.23072538267022,139.56085160689 C166.70255144073008,136.44869378188608 162.72005118622357,135.15757301717315 158.72503493788022,135.15757301717315 C149.64613630371076,135.15757301717315 142.28539442413538,142.51731348034252 142.28539442413538,151.597213530918 C142.28539442413538,160.67711358149342 149.64613630371076,168.0381053017989 158.72503493788022,168.0381053017989 C162.72005118622357,168.0381053017989 167.07301664435815,166.488409648828 169.22822218390286,163.63532776253263 L169.23072538267022,163.63958326888667 zM158.74255732925175,162.28388107116797 C152.96780645803136,162.28388107116797 148.28692949081875,157.49987464202349 148.28692949081875,151.597213530918 C148.28692949081875,145.69555383621844 152.96780645803136,140.91079651589325 158.74255732925175,140.91079651589325 C164.51480431720967,140.91079651589325 169.19568128442228,145.69555383621844 169.19568128442228,151.597213530918 C169.19568128442228,157.49987464202349 164.51480431720967,162.28388107116797 158.74255732925175,162.28388107116797 z" fill="#283343" class="" id="svg_5"/>
		<path d="M127.00987215250528,72.40074366871983 C110.0094679060659,72.40074366871983 96.23035069401358,86.18039492453241 96.23035069401358,103.17919660099129 C96.23035069401358,120.17906636497071 110.0094679060659,133.95978570830383 127.00987215250528,133.95978570830383 C144.00813993143714,133.95978570830383 157.7883246460771,120.17906636497071 157.7883246460771,103.17919660099129 C157.7883246460771,86.18039492453241 144.00813993143714,72.40074366871983 127.00987215250528,72.40074366871983 L127.00987215250528,72.40074366871983 zM47.042715176126485,72.40287984376089 C30.04444827459403,72.40287984376089 16.263728931260907,86.18039492453241 16.263728931260907,103.1807987322721 C16.263728931260907,120.17906636497071 30.04444827459403,133.95978570830383 47.042715176126485,133.95978570830383 C64.04205191997826,133.95978570830383 77.82330559953814,120.17906636497071 77.82330559953814,103.1807987322721 C77.82330559953814,86.18039492453241 64.04205191997826,72.40287984376089 47.042715176126485,72.40287984376089 L47.042715176126485,72.40287984376089 zM117.80421240659389,33.92634257677132 C117.80421240659389,50.925144253230194 104.02509519454155,64.70799962537117 87.02682741560967,64.70799962537117 C70.02695838279644,64.70799962537117 56.24730741945029,50.925144253230194 56.24730741945029,33.92634257677132 C56.24730741945029,16.928608958586327 70.02695838279644,3.147889644499836 87.02682741560967,3.147889644499836 C104.02509519454155,3.147889644499836 117.80421240659389,16.928608958586327 117.80421240659389,33.92634257677132 L117.80421240659389,33.92634257677132 z" fill="url(#radialGradient-1)" class="" id="svg_6"/>
	</g></svg>