<svg width="112px" height="22px" viewBox="0 0 112 22" fill="none" xmlns="http://www.w3.org/2000/svg"><path fill-rule="evenodd" clip-rule="evenodd" d="M108.202 16.7026C108.269 17.4678 108.881 18.4418 109.942 18.4418H110.562C110.803 18.4418 111 18.2447 111 18.004V4.35897H110.997C110.985 4.12909 110.795 3.94498 110.562 3.94498H108.64C108.407 3.94498 108.217 4.12909 108.205 4.35897H108.202V5.4677C107.024 4.01578 105.167 3.41315 103.305 3.41315C99.0718 3.41315 95.6404 6.84731 95.6404 11.0838C95.6404 15.3206 99.0718 18.7548 103.305 18.7548V18.7552C105.167 18.7552 107.197 18.0321 108.202 16.7009L108.202 16.7026ZM103.312 16.0702C100.62 16.0702 98.4376 13.8379 98.4376 11.0838C98.4376 8.33023 100.62 6.09786 103.312 6.09786C106.005 6.09786 108.187 8.33023 108.187 11.0838C108.187 13.8379 106.005 16.0702 103.312 16.0702Z" fill="#0D0E10"></path><path fill-rule="evenodd" clip-rule="evenodd" d="M93.2101 17.1718L93.2092 10.1111H93.2094C93.2094 6.13101 90.7004 3.44598 86.6995 3.44598C84.7896 3.44598 83.224 4.55123 82.671 5.50066C82.5515 4.75828 82.1577 3.97793 80.9364 3.97793H80.3139C80.0731 3.97793 79.8765 4.1752 79.8765 4.41591V16.7367C79.8765 16.7371 79.8765 16.738 79.8765 16.7386V18.0621H79.8789C79.8915 18.2916 80.0816 18.4759 80.3141 18.4759H82.2366C82.266 18.4759 82.2949 18.4724 82.3228 18.467C82.3355 18.4645 82.3473 18.4595 82.3597 18.456C82.374 18.4516 82.3889 18.4482 82.4025 18.4426C82.4196 18.4355 82.4351 18.426 82.451 18.4171C82.4588 18.4123 82.467 18.409 82.4745 18.404C82.4937 18.3916 82.5113 18.3767 82.5283 18.3615C82.5311 18.3587 82.5344 18.3568 82.5372 18.3542C82.5563 18.3357 82.5738 18.3153 82.5892 18.2941C82.5894 18.2938 82.5894 18.2938 82.5894 18.2938C82.6375 18.2277 82.6667 18.148 82.6715 18.0621H82.674V10.0016C82.674 7.86404 84.4057 6.13101 86.5418 6.13101C88.6778 6.13101 90.4096 7.86404 90.4096 10.0016L90.4113 16.7391L90.4118 16.7367C90.4118 16.7427 90.4127 16.7488 90.4127 16.7552V18.0621H90.4153C90.428 18.2916 90.6179 18.4759 90.8503 18.4759H92.7729C92.8025 18.4759 92.8312 18.4724 92.859 18.467C92.8704 18.4649 92.8809 18.4603 92.8921 18.4572C92.9078 18.4526 92.924 18.4487 92.9391 18.4426C92.9548 18.4361 92.9691 18.427 92.984 18.4186C92.9931 18.4135 93.0026 18.4098 93.0113 18.404C93.029 18.3923 93.0453 18.3782 93.0613 18.3643C93.0653 18.3605 93.0699 18.3577 93.0737 18.3539C93.092 18.3363 93.1082 18.3173 93.123 18.2974C93.1241 18.2959 93.1253 18.2947 93.1264 18.2932C93.1738 18.2277 93.2028 18.1486 93.2078 18.0632C93.2078 18.0626 93.208 18.0621 93.208 18.0621H93.2106V17.172L93.2101 17.1718Z" fill="#0D0E10"></path><path fill-rule="evenodd" clip-rule="evenodd" d="M73.1878 16.7025C73.255 17.4677 73.8671 18.4417 74.9275 18.4417H75.5479C75.7884 18.4417 75.9853 18.2446 75.9853 18.0039V4.35891H75.9828C75.9703 4.12903 75.7801 3.94492 75.5479 3.94492H73.6254C73.3929 3.94492 73.203 4.12903 73.19 4.35891H73.1878V5.46764C72.0098 4.01572 70.1527 3.41309 68.2904 3.41309C64.0574 3.41309 60.626 6.84724 60.626 11.0838C60.626 15.3205 64.0574 18.7548 68.2904 18.7548V18.7551C70.1527 18.7551 72.1823 18.0321 73.1876 16.7008L73.1878 16.7025ZM68.2979 16.0701C65.6059 16.0701 63.4233 13.8379 63.4233 11.0838C63.4233 8.33017 65.6059 6.0978 68.2979 6.0978C70.9902 6.0978 73.1724 8.33017 73.1724 11.0838C73.1724 13.8379 70.9902 16.0701 68.2979 16.0701Z" fill="#0D0E10"></path><path fill-rule="evenodd" clip-rule="evenodd" d="M49.2568 14.7483C50.5402 15.6381 51.9411 16.0703 53.2873 16.0703C54.5698 16.0703 55.8957 15.4049 55.8957 14.2467C55.8957 12.7005 53.0066 12.4599 51.1914 11.8425C49.3758 11.2251 47.8121 9.94875 47.8121 7.88185C47.8121 4.71914 50.628 3.4129 53.2562 3.4129C54.9214 3.4129 56.6395 3.96244 57.7534 4.74965C58.137 5.04055 57.9034 5.37453 57.9034 5.37453L56.8401 6.89434C56.7206 7.06552 56.5116 7.21342 56.2117 7.02814C55.9117 6.84299 54.8596 6.09769 53.2562 6.09769C51.6526 6.09769 50.6867 6.83879 50.6867 7.75736C50.6867 8.85888 51.9421 9.20532 53.4125 9.58076C55.975 10.272 58.7703 11.1029 58.7703 14.2467C58.7703 17.0333 56.1658 18.7554 53.2873 18.7554C51.106 18.7554 49.2488 18.1331 47.6912 16.9892C47.3667 16.6642 47.5933 16.3624 47.5933 16.3624L48.6514 14.8503C48.8667 14.5676 49.1381 14.6662 49.2568 14.7483Z" fill="#0D0E10"></path><path fill-rule="evenodd" clip-rule="evenodd" d="M41.8663 16.7025C41.9335 17.4677 42.5456 18.4417 43.6059 18.4417H44.2264C44.4669 18.4417 44.664 18.2446 44.664 18.0039V4.35891H44.6613C44.6487 4.12903 44.4588 3.94492 44.2264 3.94492H42.3039C42.0714 3.94492 41.8815 4.12903 41.8686 4.35891H41.8663V5.46764C40.6884 4.01572 38.8313 3.41309 36.969 3.41309C32.736 3.41309 29.3044 6.84724 29.3044 11.0838C29.3044 15.3205 32.736 18.7548 36.969 18.7548V18.7551C38.8313 18.7551 40.8608 18.0321 41.866 16.7008L41.8663 16.7025ZM36.9765 16.0701C34.2843 16.0701 32.1018 13.8379 32.1018 11.0838C32.1018 8.33017 34.2843 6.0978 36.9765 6.0978C39.6686 6.0978 41.8509 8.33017 41.8509 11.0838C41.8509 13.8379 39.6686 16.0701 36.9765 16.0701Z" fill="#0D0E10"></path><path fill-rule="evenodd" clip-rule="evenodd" d="M18.5588 11.6055C15.7102 11.6055 13.4008 13.9148 13.4008 16.7637C13.4008 19.6124 15.7102 21.9217 18.5588 21.9217C21.4075 21.9217 23.7168 19.6124 23.7168 16.7637C23.7168 13.9148 21.4075 11.6055 18.5588 11.6055ZM5.15798 11.606C2.30933 11.606 0 13.9148 0 16.7637C0 19.6124 2.30933 21.9217 5.15798 21.9217C8.00675 21.9217 10.3162 19.6124 10.3162 16.7637C10.3162 13.9148 8.00675 11.606 5.15798 11.606ZM17.0163 5.15787C17.0163 8.00676 14.7071 10.3163 11.8584 10.3163C9.00965 10.3163 6.70044 8.00676 6.70044 5.15787C6.70044 2.30956 9.00965 0 11.8584 0C14.7071 0 17.0163 2.30956 17.0163 5.15787Z" fill="#F06A6A"></path></svg>