<svg width="256" height="169" xmlns="http://www.w3.org/2000/svg" preserveAspectRatio="xMidYMid" version="1.1">
 <defs>
  <radialGradient id="radialGradient-1" r="66.2633343%" fy="54.6521962%" fx="50%" cy="54.6521962%" cx="50%">
   <stop offset="0%" stop-color="#FFB900"/>
   <stop offset="60%" stop-color="#F95D8F"/>
   <stop offset="99.91%" stop-color="#F95353"/>
  </radialGradient>
 </defs>
 <g>
  <title>Layer 1</title>
  <path stroke="null" id="svg_3" fill="url(#radialGradient-1)" d="m179.33432,88.50456c-21.2354,0 -38.44707,17.21232 -38.44707,38.44573c0,21.23473 17.21166,38.4484 38.44707,38.4484c21.23274,0 38.44573,-17.21367 38.44573,-38.4484c0,-21.23341 -17.21299,-38.44573 -38.44573,-38.44573l0,0zm-99.88793,0.00267c-21.23274,0 -38.44639,17.20965 -38.44639,38.44506c0,21.23274 17.21365,38.44641 38.44639,38.44641c21.23409,0 38.44842,-17.21367 38.44842,-38.44641c0,-21.2354 -17.21433,-38.44506 -38.44842,-38.44506l0,0zm88.38903,-48.0615c0,21.2334 -17.21166,38.44973 -38.4444,38.44973c-21.23473,0 -38.44707,-17.21634 -38.44707,-38.44973c0,-21.23208 17.21234,-38.44573 38.44707,-38.44573c21.23274,0 38.4444,17.21365 38.4444,38.44573l0,0z"/>
 </g>
</svg>